<svg width="52" height="51" viewBox="0 0 52 51" fill="none" xmlns="http://www.w3.org/2000/svg">
<path fill-rule="evenodd" clip-rule="evenodd" d="M3.18341 18.2173C3.59762 18.2173 3.93341 18.5531 3.93341 18.9673V47.3516C3.93341 47.8362 4.09167 48.1817 4.31418 48.4042C4.53669 48.6267 4.88223 48.785 5.36682 48.785H46.8515C47.3361 48.785 47.6817 48.6267 47.9042 48.4042C48.1267 48.1817 48.2849 47.8362 48.2849 47.3516V18.9673C48.2849 18.5531 48.6207 18.2173 49.0349 18.2173C49.4492 18.2173 49.7849 18.5531 49.7849 18.9673V47.3516C49.7849 48.177 49.5065 48.9232 48.9648 49.4649C48.4232 50.0065 47.677 50.285 46.8515 50.285H5.36682C4.54136 50.285 3.7952 50.0065 3.25352 49.4649C2.71184 48.9232 2.43341 48.177 2.43341 47.3516V18.9673C2.43341 18.5531 2.7692 18.2173 3.18341 18.2173Z" fill="#0F2137"/>
<path fill-rule="evenodd" clip-rule="evenodd" d="M2.66404 1.36475C2.72933 1.00864 3.0397 0.75 3.40175 0.75H48.5983C48.9603 0.75 49.2707 1.00864 49.336 1.36475L51.7377 14.4652C51.7459 14.5098 51.75 14.5551 51.75 14.6004C51.75 17.5045 49.1368 19.7172 45.9782 19.7172C43.841 19.7172 41.9536 18.7043 40.9563 17.1496C39.9591 18.7043 38.0716 19.7172 35.9345 19.7172C33.7974 19.7172 31.9099 18.7043 30.9127 17.1496C29.9154 18.7043 28.028 19.7172 25.8908 19.7172C23.7537 19.7172 21.8663 18.7043 20.869 17.1496C19.8717 18.7043 17.9843 19.7172 15.8472 19.7172C13.71 19.7172 11.8226 18.7043 10.8253 17.1496C9.82805 18.7043 7.94063 19.7172 5.80349 19.7172C2.59875 19.7172 0.25 17.4627 0.25 14.6004C0.25 14.5551 0.254115 14.5098 0.262295 14.4652L2.66404 1.36475ZM11.5753 14.6004C11.5753 16.4999 13.329 18.2172 15.8472 18.2172C18.3654 18.2172 20.119 16.4999 20.119 14.6004C20.119 14.1862 20.4548 13.8504 20.869 13.8504C21.2832 13.8504 21.619 14.1862 21.619 14.6004C21.619 16.4999 23.3726 18.2172 25.8908 18.2172C28.409 18.2172 30.1627 16.4999 30.1627 14.6004C30.1627 14.1862 30.4984 13.8504 30.9127 13.8504C31.3269 13.8504 31.6627 14.1862 31.6627 14.6004C31.6627 16.4999 33.4163 18.2172 35.9345 18.2172C38.4527 18.2172 40.2063 16.4999 40.2063 14.6004C40.2063 14.1862 40.5421 13.8504 40.9563 13.8504C41.3705 13.8504 41.7063 14.1862 41.7063 14.6004C41.7063 16.4999 43.46 18.2172 45.9782 18.2172C48.4678 18.2172 50.2102 16.5386 50.2493 14.6649L47.9733 2.25H4.02675L1.75059 14.6654C1.78544 16.5789 3.359 18.2172 5.80349 18.2172C8.32169 18.2172 10.0753 16.4999 10.0753 14.6004C10.0753 14.1862 10.4111 13.8504 10.8253 13.8504C11.2395 13.8504 11.5753 14.1862 11.5753 14.6004Z" fill="#0F2137"/>
<path fill-rule="evenodd" clip-rule="evenodd" d="M20.6506 28.4509C18.6631 28.4509 17.0338 30.0802 17.0338 32.0677V48.785H35.1845V32.0677C35.1845 30.0802 33.5552 28.4509 31.5677 28.4509H20.6506ZM15.5338 32.0677C15.5338 29.2518 17.8347 26.9509 20.6506 26.9509H31.5677C34.3836 26.9509 36.6845 29.2518 36.6845 32.0677V49.535C36.6845 49.9492 36.3487 50.285 35.9345 50.285H16.2838C15.8696 50.285 15.5338 49.9492 15.5338 49.535V32.0677Z" fill="#0F2137"/>
</svg>
